<svg width="512" height="512" viewBox="0 0 512 512" fill="none" xmlns="http://www.w3.org/2000/svg">
<path d="M229.608 427.398H167.792C161.499 427.398 156.397 432.5 156.397 438.789V500.609C156.397 506.898 161.499 512 167.792 512H229.608C235.897 512 240.999 506.898 240.999 500.609V438.789C240.999 432.5 235.897 427.398 229.608 427.398Z" fill="#1890FF"/>
<path d="M344.206 427.398H282.39C276.101 427.398 270.999 432.5 270.999 438.789V500.609C270.999 506.898 276.101 512 282.39 512H344.206C350.499 512 355.597 506.898 355.597 500.609V438.789C355.597 432.5 350.499 427.398 344.206 427.398Z" fill="#1890FF"/>
<path d="M298.3 389.207V327.391C298.3 321.102 293.198 316 286.909 316H225.093C218.8 316 213.702 321.102 213.702 327.391V389.207C213.702 395.5 218.8 400.598 225.093 400.598H286.909C293.198 400.602 298.3 395.5 298.3 389.207Z" fill="#1890FF"/>
<path d="M473.073 211.312L264.206 74.7461C259.218 71.4844 252.776 71.4844 247.788 74.7461L38.9248 211.312C34.6865 214.086 32.1318 218.805 32.1318 223.867V497C32.1318 505.285 38.8467 512 47.1318 512H111.397C119.683 512 126.397 505.285 126.397 497V254.934H385.597V497C385.597 505.285 392.315 512 400.597 512H464.866C473.147 512 479.866 505.285 479.866 497V223.867C479.866 218.805 477.311 214.082 473.073 211.312Z" fill="#1890FF"/>
<path d="M511.706 172.727C510.929 168.824 508.628 165.395 505.319 163.188L264.319 2.51953C261.8 0.84375 258.897 0.00390625 255.999 0.00390625V0C253.101 0 250.198 0.839844 247.679 2.51953L6.67877 163.188C3.37018 165.395 1.0733 168.824 0.292054 172.727C-0.489196 176.625 0.311585 180.68 2.51861 183.988L11.1202 196.891C14.2217 192.762 18.0381 189.125 22.5069 186.203L231.37 49.6367C246.335 39.8594 265.663 39.8594 280.62 49.6328L489.491 186.203C493.956 189.125 497.776 192.758 500.878 196.891L509.48 183.988C511.687 180.68 512.487 176.629 511.706 172.727Z" fill="#1890FF"/>
</svg>
